HIERARCHY
ROOT SpineBase
{
  OFFSET 0.000000 0.000000 0.000000
  CHANNELS 6 Xposition Yposition Zposition Zrotation Xrotation Yrotation
  JOINT SpineMid
  {
    OFFSET 0.000000 25.299775 0.000000
    CHANNELS 3 Zrotation Xrotation Yrotation
    JOINT SpineShoulder
    {
      OFFSET -0.009658 18.771396 -0.551047
      CHANNELS 3 Zrotation Xrotation Yrotation
      JOINT Neck
      {
        OFFSET -0.025133 6.190455 -0.464370
        CHANNELS 3 Zrotation Xrotation Yrotation
        JOINT Head
        {
          OFFSET 3.250512 11.735553 -2.207304
          CHANNELS 3 Zrotation Xrotation Yrotation
          End Site
          {
            OFFSET 0 0 0
          }
        }
      }
      JOINT ShoulderLeft
      {
        OFFSET -14.005812 -4.130404 -8.059932
        CHANNELS 3 Zrotation Xrotation Yrotation
        JOINT ElbowLeft
        {
          OFFSET 2.867824 -19.650966 -7.818848
          CHANNELS 3 Zrotation Xrotation Yrotation
          JOINT WristLeft
          {
            OFFSET 17.592995 8.137206 -12.535783
            CHANNELS 3 Zrotation Xrotation Yrotation
            JOINT HandLeft
            {
              OFFSET 11.090472 5.457104 -3.096003
              CHANNELS 3 Zrotation Xrotation Yrotation
              JOINT HandTipLeft
              {
                OFFSET 6.429272 2.388179 -0.836886
                CHANNELS 3 Zrotation Xrotation Yrotation
                End Site
                {
                  OFFSET 0 0 0
                }
              }
              JOINT ThumbLeft
              {
                OFFSET 1.374579 0.688614 1.776592
                CHANNELS 3 Zrotation Xrotation Yrotation
                End Site
                {
                  OFFSET 0 0 0
                }
              }
            }
          }
        }
      }
      JOINT ShoulderRight
      {
        OFFSET 14.954921 -2.588996 0.663332
        CHANNELS 3 Zrotation Xrotation Yrotation
        JOINT ElbowRight
        {
          OFFSET 5.103901 -18.724828 -7.253410
          CHANNELS 3 Zrotation Xrotation Yrotation
          JOINT WristRight
          {
            OFFSET -5.201984 11.227073 -20.583754
            CHANNELS 3 Zrotation Xrotation Yrotation
            JOINT HandRight
            {
              OFFSET -3.156105 -2.130280 -2.572513
              CHANNELS 3 Zrotation Xrotation Yrotation
              JOINT HandTipRight
              {
                OFFSET -5.572522 -1.523496 -1.884031
                CHANNELS 3 Zrotation Xrotation Yrotation
                End Site
                {
                  OFFSET 0 0 0
                }
              }
              JOINT ThumbRight
              {
                OFFSET -6.352710 -2.052677 -0.364367
                CHANNELS 3 Zrotation Xrotation Yrotation
                End Site
                {
                  OFFSET 0 0 0
                }
              }
            }
          }
        }
      }
    }
  }
  JOINT HipLeft
  {
    OFFSET -5.370027 0.466629 -5.384675
    CHANNELS 3 Zrotation Xrotation Yrotation
    JOINT KneeLeft
    {
      OFFSET -6.291679 -29.903484 5.837860
      CHANNELS 3 Zrotation Xrotation Yrotation
      JOINT AnkleLeft
      {
        OFFSET -4.537347 -35.602455 9.799598
        CHANNELS 3 Zrotation Xrotation Yrotation
        JOINT FootLeft
        {
          OFFSET 2.505698 -4.458975 -7.772802
          CHANNELS 3 Zrotation Xrotation Yrotation
          End Site
          {
            OFFSET 0 0 0
          }
        }
      }
    }
  }
  JOINT HipRight
  {
    OFFSET 4.765472 0.358707 -1.031069
    CHANNELS 3 Zrotation Xrotation Yrotation
    JOINT KneeRight
    {
      OFFSET -1.623278 -30.498974 6.508246
      CHANNELS 3 Zrotation Xrotation Yrotation
      JOINT AnkleRight
      {
        OFFSET -5.875144 -34.656355 12.702655
        CHANNELS 3 Zrotation Xrotation Yrotation
        JOINT FootRight
        {
          OFFSET 1.754218 -3.502553 -12.028517
          CHANNELS 3 Zrotation Xrotation Yrotation
          End Site
          {
            OFFSET 0 0 0
          }
        }
      }
    }
  }
}
MOTION
Frames: 14
Frame Time: 0.033333
37.270032 71.479467 378.125495 -0.343593 1.170417 -32.074352 0.266350 -0.152982 32.073496 0.011869 0.188150 -0.003851 -0.087241 -7.550429 1.711543 0.000000 0.000000 0.000000 1.001161 -1.421236 -0.343228 3.109919 3.016118 0.605861 -2.743448 -0.572100 -4.054844 18.397072 -1.020882 17.981511 0.000000 0.000000 0.000000 0.000000 0.000000 0.000000 3.561585 -3.096582 -1.717574 7.554851 -9.025455 14.133044 -30.226999 78.060406 -31.110305 3.759899 -21.397464 -17.093101 0.000000 0.000000 0.000000 0.000000 0.000000 0.000000 -1.750451 -0.197169 31.277235 2.722080 -6.709358 1.669161 -0.044465 3.578570 -2.573942 0.000000 0.000000 0.000000 1.121114 2.421449 32.347030 -2.169827 -5.327325 0.037982 0.857662 -6.995375 -10.331842 0.000000 0.000000 0.000000
37.277339 71.501548 378.109950 -0.333628 1.214618 -31.961302 0.277571 -0.178554 31.960712 0.004007 0.185251 -0.004161 -0.175919 -7.785934 1.747254 0.000000 0.000000 0.000000 0.625034 -1.899938 -0.267698 3.403824 3.778333 -0.399223 -2.131880 -1.305331 -2.041730 19.672639 0.333787 12.281911 0.000000 0.000000 0.000000 0.000000 0.000000 0.000000 4.001292 -2.813594 -1.795633 9.487481 -10.003343 17.373220 46.514787 80.436244 -116.547600 7.633723 -31.243924 -7.197486 0.000000 0.000000 0.000000 0.000000 0.000000 0.000000 -1.738232 0.015412 31.148476 2.535914 -6.966360 1.677404 0.327943 9.716662 0.344278 0.000000 0.000000 0.000000 1.151872 2.191002 32.224335 -1.952989 -5.108642 0.098265 -0.768075 -11.346059 -7.914666 0.000000 0.000000 0.000000
37.275984 71.544409 378.081821 -0.312681 1.297109 -31.709305 0.304606 -0.146846 31.711200 0.020222 0.233291 0.000488 -0.604469 -8.399560 1.770014 0.000000 0.000000 0.000000 0.298682 -2.461136 -0.242691 3.896889 4.867227 -1.751702 -2.225532 -2.492829 0.240542 19.612638 0.976079 7.956322 0.000000 0.000000 0.000000 0.000000 0.000000 0.000000 4.438692 -2.769148 -1.925699 9.782321 -9.517411 19.034966 49.749855 74.942123 -122.073951 3.372855 -32.016678 -8.191334 0.000000 0.000000 0.000000 0.000000 0.000000 0.000000 -1.633358 0.325337 30.894843 2.100832 -7.291005 1.631463 0.480941 16.043536 3.419603 0.000000 0.000000 0.000000 1.221452 1.922540 31.968398 -1.800756 -4.934312 0.143344 -0.932141 -6.678980 -2.600427 0.000000 0.000000 0.000000
37.270274 71.583538 378.061436 -0.328450 1.335345 -31.264027 0.319134 -0.210140 31.265032 -0.021806 0.198419 -0.004709 -0.575264 -8.429278 1.787374 0.000000 0.000000 0.000000 0.302546 -2.370614 -0.204665 4.322026 5.208050 -2.163453 -3.355221 -2.840552 -0.098753 20.379494 1.623626 5.687174 0.000000 0.000000 0.000000 0.000000 0.000000 0.000000 4.943377 -2.515265 -2.025586 10.504478 -9.028085 21.180074 55.697964 67.345585 -132.334161 0.915753 -35.435106 -6.332742 0.000000 0.000000 0.000000 0.000000 0.000000 0.000000 -1.662826 1.119122 30.384429 1.498805 -8.239303 1.652683 0.521843 17.275480 4.245835 0.000000 0.000000 0.000000 1.264379 1.675639 31.509273 -1.586380 -4.755854 0.204462 -1.896297 -4.459282 2.873271 0.000000 0.000000 0.000000
37.272064 71.619632 378.057794 -0.346815 1.323280 -30.760756 0.320791 -0.307354 30.759450 -0.047329 0.137304 -0.010293 -0.562860 -8.065177 1.721389 0.000000 0.000000 0.000000 0.485799 -2.428600 -0.263035 4.840569 5.983994 -2.526661 -5.923866 -3.578139 -0.857296 18.718955 0.945404 8.511715 0.000000 0.000000 0.000000 0.000000 0.000000 0.000000 5.492576 -2.272675 -2.172043 12.104682 -8.451875 24.628461 59.315920 58.320831 -141.997829 -1.880473 -41.317947 -2.781092 0.000000 0.000000 0.000000 0.000000 0.000000 0.000000 -1.625813 1.176824 29.885654 1.471742 -8.149974 1.636952 0.622587 14.493221 2.896274 0.000000 0.000000 0.000000 1.290124 1.538029 30.997215 -1.450514 -4.623293 0.240960 -2.937411 -15.576022 -1.060501 0.000000 0.000000 0.000000
37.265053 71.640080 378.057301 -0.386511 1.291310 -30.233127 0.324840 -0.406633 30.229034 -0.046158 0.090410 -0.014566 -0.672414 -7.571679 1.593913 0.000000 0.000000 0.000000 0.768737 -2.452512 -0.358956 5.177925 6.704211 -2.897574 -8.071446 -4.738300 -0.502506 19.575735 0.763366 10.579933 0.000000 0.000000 0.000000 0.000000 0.000000 0.000000 6.128329 -1.914791 -2.332634 11.623481 -7.978321 25.272733 57.625637 55.630566 -141.320585 -3.202202 -39.713997 -5.644442 0.000000 0.000000 0.000000 0.000000 0.000000 0.000000 -1.230278 1.189316 29.463482 0.999366 -7.744644 1.438128 0.691274 14.320734 3.083938 0.000000 0.000000 0.000000 1.350412 1.515113 30.471661 -1.430753 -4.557806 0.245378 -2.469638 -16.948194 -7.128686 0.000000 0.000000 0.000000
37.266255 71.647167 378.050982 -0.421842 1.259636 -30.131314 0.997254 -0.877591 30.143589 -0.435188 0.712681 -0.027058 -0.571186 -7.090643 1.522926 0.000000 0.000000 0.000000 1.014070 -2.594592 -0.458117 5.426517 7.697515 -3.981689 -9.907883 -8.023577 3.855158 20.266395 1.460644 6.943972 0.000000 0.000000 0.000000 0.000000 0.000000 0.000000 6.423535 -1.821910 -2.433039 10.307161 -7.534614 23.997318 54.604434 55.652795 -136.777963 -3.457313 -39.651080 -4.940325 0.000000 0.000000 0.000000 0.000000 0.000000 0.000000 -1.012322 1.050715 29.430847 0.838794 -7.349277 1.321191 1.729948 16.173168 2.402518 0.000000 0.000000 0.000000 1.388878 1.572956 30.374792 -1.469762 -4.577888 0.237195 -2.905876 -17.848735 -5.021695 0.000000 0.000000 0.000000
37.276564 71.640084 378.051999 -0.442763 1.211187 -30.185424 0.991795 -0.824254 30.197238 -0.000000 0.000000 0.000000 -0.874114 -6.016205 1.440198 0.000000 0.000000 0.000000 0.937163 -1.875995 -0.634723 4.909232 7.408804 -3.255401 -8.615773 -7.048313 3.198351 19.233930 0.666942 9.488543 0.000000 0.000000 0.000000 0.000000 0.000000 0.000000 6.074288 -1.260892 -2.604969 6.756905 -6.463232 19.515873 46.708117 52.508490 -124.960155 -5.529017 -42.975244 0.580020 0.000000 0.000000 0.000000 0.000000 0.000000 0.000000 -0.768414 0.785772 29.576997 0.688257 -6.716504 1.164876 0.412220 13.451733 3.593203 0.000000 0.000000 0.000000 1.381109 1.670130 30.430635 -1.526815 -4.613415 0.218755 -3.912397 -22.775362 -5.511418 0.000000 0.000000 0.000000
37.314853 71.632701 378.041651 -0.416735 1.223049 -30.383920 0.978193 -0.844213 30.395575 -0.478292 0.655010 -0.030499 -0.228639 -6.642324 1.500072 0.000000 0.000000 0.000000 1.089077 -2.398039 -0.447189 4.645267 6.863225 -3.341851 -7.344517 -6.742664 4.023518 17.233098 -0.270571 11.477376 0.000000 0.000000 0.000000 0.000000 0.000000 0.000000 6.186399 -2.261535 -2.448953 5.929765 -6.008738 17.711025 47.933433 45.482377 -128.066794 -8.019580 -49.590601 5.752288 0.000000 0.000000 0.000000 0.000000 0.000000 0.000000 -0.706920 0.374095 29.823725 0.809631 -6.125979 1.085418 -0.697694 13.793348 5.689407 0.000000 0.000000 0.000000 1.347555 1.690375 30.629164 -1.573939 -4.651730 0.202335 -4.471768 -25.419882 -5.701444 0.000000 0.000000 0.000000
37.358307 71.621157 378.029486 -0.374917 1.205290 -30.560329 0.935746 -0.847176 30.571191 -0.000000 0.000000 0.000000 -0.370922 -5.702590 1.477321 0.000000 0.000000 0.000000 0.649588 -2.726459 -0.646556 4.352043 7.973581 -3.971587 -6.578001 -7.971366 7.039541 14.820232 -1.537248 14.047115 0.000000 0.000000 0.000000 0.000000 0.000000 0.000000 5.845431 -1.474265 -2.569511 6.076931 -6.327184 18.066550 48.803613 48.203651 -128.621494 -5.314500 -47.158241 4.585112 0.000000 0.000000 0.000000 0.000000 0.000000 0.000000 -0.704050 0.026432 30.036301 0.947196 -5.613525 1.024176 -1.541281 8.425868 4.760797 0.000000 0.000000 0.000000 1.290770 1.664554 30.802065 -1.559649 -4.621638 0.201972 -4.654036 -26.732942 -10.587921 0.000000 0.000000 0.000000
37.406016 71.601726 378.017650 -0.319055 1.164710 -30.763304 0.869975 -0.837572 30.772906 -0.000000 0.000000 0.000000 -0.250003 -5.233201 1.379296 0.000000 0.000000 0.000000 0.773396 -3.646725 -0.825107 4.340317 8.788237 -3.310567 -6.307503 -8.642727 8.471445 18.172999 -0.915935 13.926258 0.000000 0.000000 0.000000 0.000000 0.000000 0.000000 5.861374 -1.558756 -2.594611 7.406760 -6.988276 19.661317 53.639311 53.292500 -134.460313 0.749397 -45.711356 5.649335 0.000000 0.000000 0.000000 0.000000 0.000000 0.000000 -0.872224 -0.166015 30.223313 1.177034 -5.393238 1.039181 -2.270412 3.743071 3.658124 0.000000 0.000000 0.000000 1.201340 1.654007 30.999446 -1.525096 -4.623004 0.213436 -3.941223 -24.115011 -10.255044 0.000000 0.000000 0.000000
37.448100 71.600380 377.998122 -0.256089 1.147536 -30.827221 0.808034 -0.854132 30.835809 -0.000000 0.000000 0.000000 -0.236481 -5.042230 1.330765 0.000000 0.000000 0.000000 1.056968 -4.355295 -1.030458 4.516969 9.465789 -2.191860 -6.705496 -8.495774 7.627362 22.875597 -0.424431 16.183672 0.000000 0.000000 0.000000 0.000000 0.000000 0.000000 5.951952 -1.494508 -2.613079 8.503499 -7.765862 21.012207 59.347116 58.454426 -140.349568 5.095398 -43.191962 4.147139 0.000000 0.000000 0.000000 0.000000 0.000000 0.000000 -1.074923 -0.236715 30.249301 1.366291 -5.388660 1.085029 -2.519415 4.258082 4.328907 0.000000 0.000000 0.000000 1.164075 1.662313 31.069571 -1.562936 -4.656094 0.209345 -5.753701 -30.364010 -11.284908 0.000000 0.000000 0.000000
37.490946 71.608302 377.966969 -0.169071 1.165346 -31.048675 0.745965 -0.911150 31.056326 -0.000000 0.000000 0.000000 -0.646842 -5.271185 1.296297 0.000000 0.000000 0.000000 1.447022 -4.582304 -1.203875 4.670892 9.502097 -0.470863 -6.409421 -7.913512 6.493781 22.884038 -0.024466 13.731332 0.000000 0.000000 0.000000 0.000000 0.000000 0.000000 5.951270 -1.363205 -2.583001 9.893102 -8.756346 22.510026 67.748682 64.760989 -148.055014 9.365923 -39.219970 0.856716 0.000000 0.000000 0.000000 0.000000 0.000000 0.000000 -1.417856 -0.260954 30.385656 1.662046 -5.618248 1.200416 -2.815330 -1.936073 1.113641 0.000000 0.000000 0.000000 1.083459 1.551059 31.285222 -1.449423 -4.587582 0.243792 -4.892636 -27.239109 -11.307941 0.000000 0.000000 0.000000
37.518328 71.617408 377.950778 -0.130865 1.134075 -31.152450 0.698733 -0.902808 31.159251 -0.000000 0.000000 0.000000 -0.616129 -5.144097 1.269535 0.000000 0.000000 0.000000 1.925197 -4.208429 -1.325859 5.111241 8.989855 1.803278 -8.792401 -6.510930 1.579902 23.150693 0.096624 15.051331 0.000000 0.000000 0.000000 0.000000 0.000000 0.000000 5.743451 -1.128890 -2.453223 11.853762 -9.704539 24.511289 80.082145 68.713880 -160.325336 12.016226 -36.781363 -2.031878 0.000000 0.000000 0.000000 0.000000 0.000000 0.000000 -1.816233 0.012981 30.372929 1.887332 -6.179398 1.363924 -2.736462 -5.420157 -1.661984 0.000000 0.000000 0.000000 1.058958 1.506784 31.390369 -1.396737 -4.470417 0.252745 -8.539918 -36.866066 -18.164206 0.000000 0.000000 0.000000
